<svg xmlns="http://www.w3.org/2000/svg" xmlns:xlink="http://www.w3.org/1999/xlink" contentStyleType="text/css" data-diagram-type="SEQUENCE" height="1908px" preserveAspectRatio="none" style="width:2225px;height:1908px;background:#F8FAFC;" version="1.1" viewBox="0 0 2225 1908" width="2225px" zoomAndPan="magnify"><?plantuml 1.2026.3beta6?><defs/><g><rect fill="#F8FAFC" height="1908" style="stroke:none;stroke-width:1;" width="2225" x="0" y="0"/><rect fill="none" height="133.6641" rx="6" ry="6" style="stroke:#000000;stroke-width:1.5;" width="1361.3579" x="139.8682" y="1532.5391"/><g class="participant-lifeline" data-entity-uid="part1" data-qualified-name="Customer" data-source-line="12" id="part1-lifeline"><g><title>Customer</title><rect fill="#000000" fill-opacity="0.00000" height="1744.4375" width="8" x="38.002" y="81.2969"/><line style="stroke:#94A3B8;stroke-width:0.5;stroke-dasharray:5,5;" x1="42" x2="42" y1="81.2969" y2="1825.7344"/></g></g><g class="participant-lifeline" data-entity-uid="part2" data-qualified-name="Admin" data-source-line="13" id="part2-lifeline"><g><title>Admin</title><rect fill="#000000" fill-opacity="0.00000" height="1744.4375" width="8" x="110.436" y="81.2969"/><line style="stroke:#94A3B8;stroke-width:0.5;stroke-dasharray:5,5;" x1="114.0039" x2="114.0039" y1="81.2969" y2="1825.7344"/></g></g><g class="participant-lifeline" data-entity-uid="part3" data-qualified-name="ClaimsSpecialist" data-source-line="14" id="part3-lifeline"><g><title>Claims Specialist</title><rect fill="#000000" fill-opacity="0.00000" height="1744.4375" width="8" x="208.1836" y="81.2969"/><line style="stroke:#94A3B8;stroke-width:0.5;stroke-dasharray:5,5;" x1="211.8682" x2="211.8682" y1="81.2969" y2="1825.7344"/></g></g><g class="participant-lifeline" data-entity-uid="part4" data-qualified-name="SupportSpecialist" data-source-line="15" id="part4-lifeline"><g><title>Support Specialist</title><rect fill="#000000" fill-opacity="0.00000" height="1744.4375" width="8" x="346.9536" y="81.2969"/><line style="stroke:#94A3B8;stroke-width:0.5;stroke-dasharray:5,5;" x1="350.499" x2="350.499" y1="81.2969" y2="1825.7344"/></g></g><g class="participant-lifeline" data-entity-uid="part5" data-qualified-name="ApiGateway" data-source-line="17" id="part5-lifeline"><g><title>ApiGateway</title><rect fill="#000000" fill-opacity="0.00000" height="1744.4375" width="8" x="562.6846" y="81.2969"/><line style="stroke:#94A3B8;stroke-width:0.5;stroke-dasharray:5,5;" x1="566.5854" x2="566.5854" y1="81.2969" y2="1825.7344"/></g></g><g class="participant-lifeline" data-entity-uid="part6" data-qualified-name="TicketService" data-source-line="18" id="part6-lifeline"><g><title>TicketService</title><rect fill="#000000" fill-opacity="0.00000" height="1744.4375" width="8" x="1072.2993" y="81.2969"/><line style="stroke:#94A3B8;stroke-width:0.5;stroke-dasharray:5,5;" x1="1076.2544" x2="1076.2544" y1="81.2969" y2="1825.7344"/></g></g><g class="participant-lifeline" data-entity-uid="part7" data-qualified-name="PolicyService" data-source-line="19" id="part7-lifeline"><g><title>PolicyService</title><rect fill="#000000" fill-opacity="0.00000" height="1744.4375" width="8" x="1335.4131" y="81.2969"/><line style="stroke:#94A3B8;stroke-width:0.5;stroke-dasharray:5,5;" x1="1339.1577" x2="1339.1577" y1="81.2969" y2="1825.7344"/></g></g><g class="participant-lifeline" data-entity-uid="part8" data-qualified-name="RabbitMQ" data-source-line="20" id="part8-lifeline"><g><title>RabbitMQ</title><rect fill="#000000" fill-opacity="0.00000" height="1744.4375" width="8" x="1442.9473" y="81.2969"/><line style="stroke:#94A3B8;stroke-width:0.5;stroke-dasharray:5,5;" x1="1446.6685" x2="1446.6685" y1="81.2969" y2="1825.7344"/></g></g><g class="participant-lifeline" data-entity-uid="part9" data-qualified-name="NotificationService" data-source-line="21" id="part9-lifeline"><g><title>NotificationService</title><rect fill="#000000" fill-opacity="0.00000" height="1744.4375" width="8" x="1738.4873" y="81.2969"/><line style="stroke:#94A3B8;stroke-width:0.5;stroke-dasharray:5,5;" x1="1742.4521" x2="1742.4521" y1="81.2969" y2="1825.7344"/></g></g><g class="participant-lifeline" data-entity-uid="part10" data-qualified-name="AdminService" data-source-line="22" id="part10-lifeline"><g><title>AdminService</title><rect fill="#000000" fill-opacity="0.00000" height="1744.4375" width="8" x="2020.8091" y="81.2969"/><line style="stroke:#94A3B8;stroke-width:0.5;stroke-dasharray:5,5;" x1="2024.5063" x2="2024.5063" y1="81.2969" y2="1825.7344"/></g></g><g class="participant participant-head" data-entity-uid="part1" data-qualified-name="Customer" data-source-line="12" id="part1-head"><text fill="#000000" font-family="sans-serif" font-size="14" lengthAdjust="spacing" textLength="68.0039" x="5" y="77.9951">Customer</text><ellipse cx="42.002" cy="13.5" fill="#E2E2F0" rx="8" ry="8" style="stroke:#181818;stroke-width:0.5;"/><path d="M42.002,21.5 L42.002,48.5 M29.002,29.5 L55.002,29.5 M42.002,48.5 L29.002,63.5 M42.002,48.5 L55.002,63.5" fill="none" style="stroke:#181818;stroke-width:0.5;"/></g><g class="participant participant-tail" data-entity-uid="part1" data-qualified-name="Customer" data-source-line="12" id="part1-tail"><text fill="#000000" font-family="sans-serif" font-size="14" lengthAdjust="spacing" textLength="68.0039" x="5" y="1837.7295">Customer</text><ellipse cx="42.002" cy="1849.5313" fill="#E2E2F0" rx="8" ry="8" style="stroke:#181818;stroke-width:0.5;"/><path d="M42.002,1857.5313 L42.002,1884.5313 M29.002,1865.5313 L55.002,1865.5313 M42.002,1884.5313 L29.002,1899.5313 M42.002,1884.5313 L55.002,1899.5313" fill="none" style="stroke:#181818;stroke-width:0.5;"/></g><g class="participant participant-head" data-entity-uid="part2" data-qualified-name="Admin" data-source-line="13" id="part2-head"><text fill="#000000" font-family="sans-serif" font-size="14" lengthAdjust="spacing" textLength="44.8643" x="89.0039" y="77.9951">Admin</text><ellipse cx="114.436" cy="13.5" fill="#E2E2F0" rx="8" ry="8" style="stroke:#181818;stroke-width:0.5;"/><path d="M114.436,21.5 L114.436,48.5 M101.436,29.5 L127.436,29.5 M114.436,48.5 L101.436,63.5 M114.436,48.5 L127.436,63.5" fill="none" style="stroke:#181818;stroke-width:0.5;"/></g><g class="participant participant-tail" data-entity-uid="part2" data-qualified-name="Admin" data-source-line="13" id="part2-tail"><text fill="#000000" font-family="sans-serif" font-size="14" lengthAdjust="spacing" textLength="44.8643" x="89.0039" y="1837.7295">Admin</text><ellipse cx="114.436" cy="1849.5313" fill="#E2E2F0" rx="8" ry="8" style="stroke:#181818;stroke-width:0.5;"/><path d="M114.436,1857.5313 L114.436,1884.5313 M101.436,1865.5313 L127.436,1865.5313 M114.436,1884.5313 L101.436,1899.5313 M114.436,1884.5313 L127.436,1899.5313" fill="none" style="stroke:#181818;stroke-width:0.5;"/></g><g class="participant participant-head" data-entity-uid="part3" data-qualified-name="ClaimsSpecialist" data-source-line="14" id="part3-head"><text fill="#000000" font-family="sans-serif" font-size="14" lengthAdjust="spacing" textLength="118.6309" x="149.8682" y="77.9951">Claims Specialist</text><ellipse cx="212.1836" cy="13.5" fill="#E2E2F0" rx="8" ry="8" style="stroke:#181818;stroke-width:0.5;"/><path d="M212.1836,21.5 L212.1836,48.5 M199.1836,29.5 L225.1836,29.5 M212.1836,48.5 L199.1836,63.5 M212.1836,48.5 L225.1836,63.5" fill="none" style="stroke:#181818;stroke-width:0.5;"/></g><g class="participant participant-tail" data-entity-uid="part3" data-qualified-name="ClaimsSpecialist" data-source-line="14" id="part3-tail"><text fill="#000000" font-family="sans-serif" font-size="14" lengthAdjust="spacing" textLength="118.6309" x="149.8682" y="1837.7295">Claims Specialist</text><ellipse cx="212.1836" cy="1849.5313" fill="#E2E2F0" rx="8" ry="8" style="stroke:#181818;stroke-width:0.5;"/><path d="M212.1836,1857.5313 L212.1836,1884.5313 M199.1836,1865.5313 L225.1836,1865.5313 M212.1836,1884.5313 L199.1836,1899.5313 M212.1836,1884.5313 L225.1836,1899.5313" fill="none" style="stroke:#181818;stroke-width:0.5;"/></g><g class="participant participant-head" data-entity-uid="part4" data-qualified-name="SupportSpecialist" data-source-line="15" id="part4-head"><text fill="#000000" font-family="sans-serif" font-size="14" lengthAdjust="spacing" textLength="126.9092" x="284.499" y="77.9951">Support Specialist</text><ellipse cx="350.9536" cy="13.5" fill="#E2E2F0" rx="8" ry="8" style="stroke:#181818;stroke-width:0.5;"/><path d="M350.9536,21.5 L350.9536,48.5 M337.9536,29.5 L363.9536,29.5 M350.9536,48.5 L337.9536,63.5 M350.9536,48.5 L363.9536,63.5" fill="none" style="stroke:#181818;stroke-width:0.5;"/></g><g class="participant participant-tail" data-entity-uid="part4" data-qualified-name="SupportSpecialist" data-source-line="15" id="part4-tail"><text fill="#000000" font-family="sans-serif" font-size="14" lengthAdjust="spacing" textLength="126.9092" x="284.499" y="1837.7295">Support Specialist</text><ellipse cx="350.9536" cy="1849.5313" fill="#E2E2F0" rx="8" ry="8" style="stroke:#181818;stroke-width:0.5;"/><path d="M350.9536,1857.5313 L350.9536,1884.5313 M337.9536,1865.5313 L363.9536,1865.5313 M350.9536,1884.5313 L337.9536,1899.5313 M350.9536,1884.5313 L363.9536,1899.5313" fill="none" style="stroke:#181818;stroke-width:0.5;"/></g><g class="participant participant-head" data-entity-uid="part5" data-qualified-name="ApiGateway" data-source-line="17" id="part5-head"><rect fill="#FFFFFF" height="30.2969" rx="6" ry="6" style="stroke:#0F172A;stroke-width:0.5;" width="98.1982" x="517.5854" y="50"/><text fill="#000000" font-family="sans-serif" font-size="14" lengthAdjust="spacing" textLength="84.1982" x="524.5854" y="69.9951">ApiGateway</text></g><g class="participant participant-tail" data-entity-uid="part5" data-qualified-name="ApiGateway" data-source-line="17" id="part5-tail"><rect fill="#FFFFFF" height="30.2969" rx="6" ry="6" style="stroke:#0F172A;stroke-width:0.5;" width="98.1982" x="517.5854" y="1824.7344"/><text fill="#000000" font-family="sans-serif" font-size="14" lengthAdjust="spacing" textLength="84.1982" x="524.5854" y="1844.7295">ApiGateway</text></g><g class="participant participant-head" data-entity-uid="part6" data-qualified-name="TicketService" data-source-line="18" id="part6-head"><rect fill="#FFFFFF" height="30.2969" rx="6" ry="6" style="stroke:#0F172A;stroke-width:0.5;" width="108.0898" x="1022.2544" y="50"/><text fill="#000000" font-family="sans-serif" font-size="14" lengthAdjust="spacing" textLength="94.0898" x="1029.2544" y="69.9951">TicketService</text></g><g class="participant participant-tail" data-entity-uid="part6" data-qualified-name="TicketService" data-source-line="18" id="part6-tail"><rect fill="#FFFFFF" height="30.2969" rx="6" ry="6" style="stroke:#0F172A;stroke-width:0.5;" width="108.0898" x="1022.2544" y="1824.7344"/><text fill="#000000" font-family="sans-serif" font-size="14" lengthAdjust="spacing" textLength="94.0898" x="1029.2544" y="1844.7295">TicketService</text></g><g class="participant participant-head" data-entity-uid="part7" data-qualified-name="PolicyService" data-source-line="19" id="part7-head"><rect fill="#FFFFFF" height="30.2969" rx="6" ry="6" style="stroke:#0F172A;stroke-width:0.5;" width="106.5107" x="1286.1577" y="50"/><text fill="#000000" font-family="sans-serif" font-size="14" lengthAdjust="spacing" textLength="92.5107" x="1293.1577" y="69.9951">PolicyService</text></g><g class="participant participant-tail" data-entity-uid="part7" data-qualified-name="PolicyService" data-source-line="19" id="part7-tail"><rect fill="#FFFFFF" height="30.2969" rx="6" ry="6" style="stroke:#0F172A;stroke-width:0.5;" width="106.5107" x="1286.1577" y="1824.7344"/><text fill="#000000" font-family="sans-serif" font-size="14" lengthAdjust="spacing" textLength="92.5107" x="1293.1577" y="1844.7295">PolicyService</text></g><g class="participant participant-head" data-entity-uid="part8" data-qualified-name="RabbitMQ" data-source-line="20" id="part8-head"><path d="M1407.6685,55 L1486.2261,55 C1491.2261,55 1491.2261,68.1484 1491.2261,68.1484 C1491.2261,68.1484 1491.2261,81.2969 1486.2261,81.2969 L1407.6685,81.2969 C1402.6685,81.2969 1402.6685,68.1484 1402.6685,68.1484 C1402.6685,68.1484 1402.6685,55 1407.6685,55" fill="#E2E2F0" style="stroke:#181818;stroke-width:0.5;"/><path d="M1486.2261,55 C1481.2261,55 1481.2261,68.1484 1481.2261,68.1484 C1481.2261,81.2969 1486.2261,81.2969 1486.2261,81.2969" fill="none" style="stroke:#181818;stroke-width:0.5;"/><text fill="#000000" font-family="sans-serif" font-size="14" lengthAdjust="spacing" textLength="68.5576" x="1407.6685" y="72.9951">RabbitMQ</text></g><g class="participant participant-tail" data-entity-uid="part8" data-qualified-name="RabbitMQ" data-source-line="20" id="part8-tail"><path d="M1407.6685,1824.7344 L1486.2261,1824.7344 C1491.2261,1824.7344 1491.2261,1837.8828 1491.2261,1837.8828 C1491.2261,1837.8828 1491.2261,1851.0313 1486.2261,1851.0313 L1407.6685,1851.0313 C1402.6685,1851.0313 1402.6685,1837.8828 1402.6685,1837.8828 C1402.6685,1837.8828 1402.6685,1824.7344 1407.6685,1824.7344" fill="#E2E2F0" style="stroke:#181818;stroke-width:0.5;"/><path d="M1486.2261,1824.7344 C1481.2261,1824.7344 1481.2261,1837.8828 1481.2261,1837.8828 C1481.2261,1851.0313 1486.2261,1851.0313 1486.2261,1851.0313" fill="none" style="stroke:#181818;stroke-width:0.5;"/><text fill="#000000" font-family="sans-serif" font-size="14" lengthAdjust="spacing" textLength="68.5576" x="1407.6685" y="1842.7295">RabbitMQ</text></g><g class="participant participant-head" data-entity-uid="part9" data-qualified-name="NotificationService" data-source-line="21" id="part9-head"><rect fill="#FFFFFF" height="30.2969" rx="6" ry="6" style="stroke:#0F172A;stroke-width:0.5;" width="146.0703" x="1669.4521" y="50"/><text fill="#000000" font-family="sans-serif" font-size="14" lengthAdjust="spacing" textLength="132.0703" x="1676.4521" y="69.9951">NotificationService</text></g><g class="participant participant-tail" data-entity-uid="part9" data-qualified-name="NotificationService" data-source-line="21" id="part9-tail"><rect fill="#FFFFFF" height="30.2969" rx="6" ry="6" style="stroke:#0F172A;stroke-width:0.5;" width="146.0703" x="1669.4521" y="1824.7344"/><text fill="#000000" font-family="sans-serif" font-size="14" lengthAdjust="spacing" textLength="132.0703" x="1676.4521" y="1844.7295">NotificationService</text></g><g class="participant participant-head" data-entity-uid="part10" data-qualified-name="AdminService" data-source-line="22" id="part10-head"><rect fill="#FFFFFF" height="30.2969" rx="6" ry="6" style="stroke:#0F172A;stroke-width:0.5;" width="110.6055" x="1969.5063" y="50"/><text fill="#000000" font-family="sans-serif" font-size="14" lengthAdjust="spacing" textLength="96.6055" x="1976.5063" y="69.9951">AdminService</text></g><g class="participant participant-tail" data-entity-uid="part10" data-qualified-name="AdminService" data-source-line="22" id="part10-tail"><rect fill="#FFFFFF" height="30.2969" rx="6" ry="6" style="stroke:#0F172A;stroke-width:0.5;" width="110.6055" x="1969.5063" y="1824.7344"/><text fill="#000000" font-family="sans-serif" font-size="14" lengthAdjust="spacing" textLength="96.6055" x="1976.5063" y="1844.7295">AdminService</text></g><rect fill="#EEEEEE" height="3" rx="6" ry="6" style="stroke:#EEEEEE;stroke-width:1;" width="2219.0889" x="0" y="111.8633"/><line style="stroke:#000000;stroke-width:1;" x1="0" x2="2219.0889" y1="111.8633" y2="111.8633"/><line style="stroke:#000000;stroke-width:1;" x1="0" x2="2219.0889" y1="114.8633" y2="114.8633"/><rect fill="#EEEEEE" height="23.1328" rx="6" ry="6" style="stroke:#000000;stroke-width:2;" width="126.5439" x="1046.2725" y="101.2969"/><text fill="#000000" font-family="sans-serif" font-size="13" font-weight="700" lengthAdjust="spacing" textLength="108.0181" x="1052.2725" y="117.3638">Support Ticket</text><g class="message" data-entity-1="part1" data-entity-2="part5" data-source-line="25" id="msg1"><polygon fill="#0F172A" points="554.6846,166.6953,564.6846,170.6953,554.6846,174.6953,558.6846,170.6953" style="stroke:#0F172A;stroke-width:1;"/><line style="stroke:#0F172A;stroke-width:1;" x1="42.002" x2="560.6846" y1="170.6953" y2="170.6953"/><text fill="#000000" font-family="sans-serif" font-size="13" lengthAdjust="spacing" textLength="86.0298" x="49.002" y="150.4966">POST /tickets</text><text fill="#000000" font-family="sans-serif" font-size="13" lengthAdjust="spacing" textLength="109.7319" x="49.002" y="165.6294">(type = Support)</text></g><g class="message" data-entity-1="part5" data-entity-2="part6" data-source-line="26" id="msg2"><polygon fill="#0F172A" points="1064.2993,195.8281,1074.2993,199.8281,1064.2993,203.8281,1068.2993,199.8281" style="stroke:#0F172A;stroke-width:1;"/><line style="stroke:#0F172A;stroke-width:1;" x1="566.6846" x2="1070.2993" y1="199.8281" y2="199.8281"/><text fill="#000000" font-family="sans-serif" font-size="13" lengthAdjust="spacing" textLength="106.8057" x="573.6846" y="194.7622">Forward request</text></g><g class="message" data-entity-1="part6" data-entity-2="part6" data-source-line="27" id="msg3"><line style="stroke:#0F172A;stroke-width:1;" x1="1076.2993" x2="1118.2993" y1="228.9609" y2="228.9609"/><line style="stroke:#0F172A;stroke-width:1;" x1="1118.2993" x2="1118.2993" y1="228.9609" y2="241.9609"/><line style="stroke:#0F172A;stroke-width:1;" x1="1077.2993" x2="1118.2993" y1="241.9609" y2="241.9609"/><polygon fill="#0F172A" points="1087.2993,237.9609,1077.2993,241.9609,1087.2993,245.9609,1083.2993,241.9609" style="stroke:#0F172A;stroke-width:1;"/><text fill="#000000" font-family="sans-serif" font-size="13" lengthAdjust="spacing" textLength="213.8271" x="1083.2993" y="223.895">Validate authenticated customer</text></g><g class="message" data-entity-1="part6" data-entity-2="part8" data-source-line="28" id="msg4"><polygon fill="#0F172A" points="1434.9473,267.0938,1444.9473,271.0938,1434.9473,275.0938,1438.9473,271.0938" style="stroke:#0F172A;stroke-width:1;"/><line style="stroke:#0F172A;stroke-width:1;" x1="1076.2993" x2="1440.9473" y1="271.0938" y2="271.0938"/><text fill="#000000" font-family="sans-serif" font-size="13" lengthAdjust="spacing" textLength="141.7559" x="1083.2993" y="266.0278">Publish TicketCreated</text></g><g class="message" data-entity-1="part6" data-entity-2="part5" data-source-line="29" id="msg5"><polygon fill="#0F172A" points="577.6846,296.2266,567.6846,300.2266,577.6846,304.2266,573.6846,300.2266" style="stroke:#0F172A;stroke-width:1;"/><line style="stroke:#0F172A;stroke-width:1;stroke-dasharray:2,2;" x1="571.6846" x2="1075.2993" y1="300.2266" y2="300.2266"/><text fill="#000000" font-family="sans-serif" font-size="13" lengthAdjust="spacing" textLength="93.2598" x="583.6846" y="295.1606">Ticket created</text></g><g class="message" data-entity-1="part5" data-entity-2="part1" data-source-line="30" id="msg6"><polygon fill="#0F172A" points="53.002,325.3594,43.002,329.3594,53.002,333.3594,49.002,329.3594" style="stroke:#0F172A;stroke-width:1;"/><line style="stroke:#0F172A;stroke-width:1;stroke-dasharray:2,2;" x1="47.002" x2="565.6846" y1="329.3594" y2="329.3594"/><text fill="#000000" font-family="sans-serif" font-size="13" lengthAdjust="spacing" textLength="155.4668" x="59.002" y="324.2935">Support ticket response</text></g><g class="message" data-entity-1="part2" data-entity-2="part5" data-source-line="32" id="msg7"><polygon fill="#0F172A" points="554.6846,354.4922,564.6846,358.4922,554.6846,362.4922,558.6846,358.4922" style="stroke:#0F172A;stroke-width:1;"/><line style="stroke:#0F172A;stroke-width:1;" x1="114.436" x2="560.6846" y1="358.4922" y2="358.4922"/><text fill="#000000" font-family="sans-serif" font-size="13" lengthAdjust="spacing" textLength="155.8413" x="121.436" y="353.4263">PUT /tickets/{id}/assign</text></g><g class="message" data-entity-1="part5" data-entity-2="part6" data-source-line="33" id="msg8"><polygon fill="#0F172A" points="1064.2993,383.625,1074.2993,387.625,1064.2993,391.625,1068.2993,387.625" style="stroke:#0F172A;stroke-width:1;"/><line style="stroke:#0F172A;stroke-width:1;" x1="566.6846" x2="1070.2993" y1="387.625" y2="387.625"/><text fill="#000000" font-family="sans-serif" font-size="13" lengthAdjust="spacing" textLength="137.1982" x="573.6846" y="382.5591">Assign support ticket</text></g><g class="message" data-entity-1="part6" data-entity-2="part6" data-source-line="34" id="msg9"><line style="stroke:#0F172A;stroke-width:1;" x1="1076.2993" x2="1118.2993" y1="416.7578" y2="416.7578"/><line style="stroke:#0F172A;stroke-width:1;" x1="1118.2993" x2="1118.2993" y1="416.7578" y2="429.7578"/><line style="stroke:#0F172A;stroke-width:1;" x1="1077.2993" x2="1118.2993" y1="429.7578" y2="429.7578"/><polygon fill="#0F172A" points="1087.2993,425.7578,1077.2993,429.7578,1087.2993,433.7578,1083.2993,429.7578" style="stroke:#0F172A;stroke-width:1;"/><text fill="#000000" font-family="sans-serif" font-size="13" lengthAdjust="spacing" textLength="100.166" x="1083.2993" y="411.6919">Set AssignedTo</text></g><g class="message" data-entity-1="part6" data-entity-2="part8" data-source-line="35" id="msg10"><polygon fill="#0F172A" points="1434.9473,454.8906,1444.9473,458.8906,1434.9473,462.8906,1438.9473,458.8906" style="stroke:#0F172A;stroke-width:1;"/><line style="stroke:#0F172A;stroke-width:1;" x1="1076.2993" x2="1440.9473" y1="458.8906" y2="458.8906"/><text fill="#000000" font-family="sans-serif" font-size="13" lengthAdjust="spacing" textLength="148.8145" x="1083.2993" y="453.8247">Publish TicketAssigned</text></g><g class="message" data-entity-1="part6" data-entity-2="part5" data-source-line="36" id="msg11"><polygon fill="#0F172A" points="577.6846,484.0234,567.6846,488.0234,577.6846,492.0234,573.6846,488.0234" style="stroke:#0F172A;stroke-width:1;"/><line style="stroke:#0F172A;stroke-width:1;stroke-dasharray:2,2;" x1="571.6846" x2="1075.2993" y1="488.0234" y2="488.0234"/><text fill="#000000" font-family="sans-serif" font-size="13" lengthAdjust="spacing" textLength="58.792" x="583.6846" y="482.9575">Assigned</text></g><g class="message" data-entity-1="part4" data-entity-2="part5" data-source-line="38" id="msg12"><polygon fill="#0F172A" points="554.6846,513.1563,564.6846,517.1563,554.6846,521.1563,558.6846,517.1563" style="stroke:#0F172A;stroke-width:1;"/><line style="stroke:#0F172A;stroke-width:1;" x1="350.9536" x2="560.6846" y1="517.1563" y2="517.1563"/><text fill="#000000" font-family="sans-serif" font-size="13" lengthAdjust="spacing" textLength="191.731" x="357.9536" y="512.0903">POST /tickets/{id}/comments</text></g><g class="message" data-entity-1="part5" data-entity-2="part6" data-source-line="39" id="msg13"><polygon fill="#0F172A" points="1064.2993,542.2891,1074.2993,546.2891,1064.2993,550.2891,1068.2993,546.2891" style="stroke:#0F172A;stroke-width:1;"/><line style="stroke:#0F172A;stroke-width:1;" x1="566.6846" x2="1070.2993" y1="546.2891" y2="546.2891"/><text fill="#000000" font-family="sans-serif" font-size="13" lengthAdjust="spacing" textLength="91.292" x="573.6846" y="541.2231">Add comment</text></g><g class="message" data-entity-1="part6" data-entity-2="part8" data-source-line="40" id="msg14"><polygon fill="#0F172A" points="1434.9473,571.4219,1444.9473,575.4219,1434.9473,579.4219,1438.9473,575.4219" style="stroke:#0F172A;stroke-width:1;"/><line style="stroke:#0F172A;stroke-width:1;" x1="1076.2993" x2="1440.9473" y1="575.4219" y2="575.4219"/><text fill="#000000" font-family="sans-serif" font-size="13" lengthAdjust="spacing" textLength="156.0381" x="1083.2993" y="570.356">Publish CommentAdded</text></g><g class="message" data-entity-1="part6" data-entity-2="part5" data-source-line="41" id="msg15"><polygon fill="#0F172A" points="577.6846,600.5547,567.6846,604.5547,577.6846,608.5547,573.6846,604.5547" style="stroke:#0F172A;stroke-width:1;"/><line style="stroke:#0F172A;stroke-width:1;stroke-dasharray:2,2;" x1="571.6846" x2="1075.2993" y1="604.5547" y2="604.5547"/><text fill="#000000" font-family="sans-serif" font-size="13" lengthAdjust="spacing" textLength="106.5073" x="583.6846" y="599.4888">Comment saved</text></g><g class="message" data-entity-1="part4" data-entity-2="part5" data-source-line="43" id="msg16"><polygon fill="#0F172A" points="554.6846,629.6875,564.6846,633.6875,554.6846,637.6875,558.6846,633.6875" style="stroke:#0F172A;stroke-width:1;"/><line style="stroke:#0F172A;stroke-width:1;" x1="350.9536" x2="560.6846" y1="633.6875" y2="633.6875"/><text fill="#000000" font-family="sans-serif" font-size="13" lengthAdjust="spacing" textLength="154.1719" x="357.9536" y="628.6216">PUT /tickets/{id}/status</text></g><g class="message" data-entity-1="part5" data-entity-2="part6" data-source-line="44" id="msg17"><polygon fill="#0F172A" points="1064.2993,658.8203,1074.2993,662.8203,1064.2993,666.8203,1068.2993,662.8203" style="stroke:#0F172A;stroke-width:1;"/><line style="stroke:#0F172A;stroke-width:1;" x1="566.6846" x2="1070.2993" y1="662.8203" y2="662.8203"/><text fill="#000000" font-family="sans-serif" font-size="13" lengthAdjust="spacing" textLength="219.832" x="573.6846" y="657.7544">Update status to Resolved/Closed</text></g><g class="message" data-entity-1="part6" data-entity-2="part6" data-source-line="45" id="msg18"><line style="stroke:#0F172A;stroke-width:1;" x1="1076.2993" x2="1118.2993" y1="691.9531" y2="691.9531"/><line style="stroke:#0F172A;stroke-width:1;" x1="1118.2993" x2="1118.2993" y1="691.9531" y2="704.9531"/><line style="stroke:#0F172A;stroke-width:1;" x1="1077.2993" x2="1118.2993" y1="704.9531" y2="704.9531"/><polygon fill="#0F172A" points="1087.2993,700.9531,1077.2993,704.9531,1087.2993,708.9531,1083.2993,704.9531" style="stroke:#0F172A;stroke-width:1;"/><text fill="#000000" font-family="sans-serif" font-size="13" lengthAdjust="spacing" textLength="249.1138" x="1083.2993" y="686.8872">Ensure assigned before status change</text></g><g class="message" data-entity-1="part6" data-entity-2="part8" data-source-line="46" id="msg19"><polygon fill="#0F172A" points="1434.9473,730.0859,1444.9473,734.0859,1434.9473,738.0859,1438.9473,734.0859" style="stroke:#0F172A;stroke-width:1;"/><line style="stroke:#0F172A;stroke-width:1;" x1="1076.2993" x2="1440.9473" y1="734.0859" y2="734.0859"/><text fill="#000000" font-family="sans-serif" font-size="13" lengthAdjust="spacing" textLength="145.355" x="1083.2993" y="729.02">Publish TicketUpdated</text></g><g class="message" data-entity-1="part6" data-entity-2="part5" data-source-line="47" id="msg20"><polygon fill="#0F172A" points="577.6846,759.2188,567.6846,763.2188,577.6846,767.2188,573.6846,763.2188" style="stroke:#0F172A;stroke-width:1;"/><line style="stroke:#0F172A;stroke-width:1;stroke-dasharray:2,2;" x1="571.6846" x2="1075.2993" y1="763.2188" y2="763.2188"/><text fill="#000000" font-family="sans-serif" font-size="13" lengthAdjust="spacing" textLength="55.3325" x="583.6846" y="758.1528">Updated</text></g><rect fill="#EEEEEE" height="3" rx="6" ry="6" style="stroke:#EEEEEE;stroke-width:1;" width="2219.0889" x="0" y="791.7852"/><line style="stroke:#000000;stroke-width:1;" x1="0" x2="2219.0889" y1="791.7852" y2="791.7852"/><line style="stroke:#000000;stroke-width:1;" x1="0" x2="2219.0889" y1="794.7852" y2="794.7852"/><rect fill="#EEEEEE" height="23.1328" rx="6" ry="6" style="stroke:#000000;stroke-width:2;" width="108.5293" x="1055.2798" y="781.2188"/><text fill="#000000" font-family="sans-serif" font-size="13" font-weight="700" lengthAdjust="spacing" textLength="90.0034" x="1061.2798" y="797.2856">Claim Ticket</text><g class="message" data-entity-1="part1" data-entity-2="part5" data-source-line="50" id="msg21"><polygon fill="#0F172A" points="554.6846,846.6172,564.6846,850.6172,554.6846,854.6172,558.6846,850.6172" style="stroke:#0F172A;stroke-width:1;"/><line style="stroke:#0F172A;stroke-width:1;" x1="42.002" x2="560.6846" y1="850.6172" y2="850.6172"/><text fill="#000000" font-family="sans-serif" font-size="13" lengthAdjust="spacing" textLength="86.0298" x="49.002" y="830.4185">POST /tickets</text><text fill="#000000" font-family="sans-serif" font-size="13" lengthAdjust="spacing" textLength="248.2441" x="49.002" y="845.5513">(type = Claim, policyId, claimAmount)</text></g><g class="message" data-entity-1="part5" data-entity-2="part6" data-source-line="51" id="msg22"><polygon fill="#0F172A" points="1064.2993,875.75,1074.2993,879.75,1064.2993,883.75,1068.2993,879.75" style="stroke:#0F172A;stroke-width:1;"/><line style="stroke:#0F172A;stroke-width:1;" x1="566.6846" x2="1070.2993" y1="879.75" y2="879.75"/><text fill="#000000" font-family="sans-serif" font-size="13" lengthAdjust="spacing" textLength="145.939" x="573.6846" y="874.6841">Forward claim request</text></g><g class="message" data-entity-1="part6" data-entity-2="part5" data-source-line="52" id="msg23"><polygon fill="#0F172A" points="577.6846,904.8828,567.6846,908.8828,577.6846,912.8828,573.6846,908.8828" style="stroke:#0F172A;stroke-width:1;"/><line style="stroke:#0F172A;stroke-width:1;" x1="571.6846" x2="1075.2993" y1="908.8828" y2="908.8828"/><text fill="#000000" font-family="sans-serif" font-size="13" lengthAdjust="spacing" textLength="485.6147" x="583.6846" y="903.8169">GET /internal/policies/{policyId}/customers/{customerId}/ticket-validation</text></g><g class="message" data-entity-1="part5" data-entity-2="part7" data-source-line="53" id="msg24"><polygon fill="#0F172A" points="1327.4131,934.0156,1337.4131,938.0156,1327.4131,942.0156,1331.4131,938.0156" style="stroke:#0F172A;stroke-width:1;"/><line style="stroke:#0F172A;stroke-width:1;" x1="566.6846" x2="1333.4131" y1="938.0156" y2="938.0156"/><text fill="#000000" font-family="sans-serif" font-size="13" lengthAdjust="spacing" textLength="175.3477" x="573.6846" y="932.9497">Forward internal validation</text></g><g class="message" data-entity-1="part7" data-entity-2="part5" data-source-line="54" id="msg25"><polygon fill="#0F172A" points="577.6846,963.1484,567.6846,967.1484,577.6846,971.1484,573.6846,967.1484" style="stroke:#0F172A;stroke-width:1;"/><line style="stroke:#0F172A;stroke-width:1;stroke-dasharray:2,2;" x1="571.6846" x2="1338.4131" y1="967.1484" y2="967.1484"/><text fill="#000000" font-family="sans-serif" font-size="13" lengthAdjust="spacing" textLength="252.7319" x="583.6846" y="962.0825">Policy exists + purchased by customer</text></g><g class="message" data-entity-1="part5" data-entity-2="part6" data-source-line="55" id="msg26"><polygon fill="#0F172A" points="1064.2993,992.2813,1074.2993,996.2813,1064.2993,1000.2813,1068.2993,996.2813" style="stroke:#0F172A;stroke-width:1;"/><line style="stroke:#0F172A;stroke-width:1;stroke-dasharray:2,2;" x1="566.6846" x2="1070.2993" y1="996.2813" y2="996.2813"/><text fill="#000000" font-family="sans-serif" font-size="13" lengthAdjust="spacing" textLength="106.3994" x="573.6846" y="991.2153">Validation result</text></g><g class="message" data-entity-1="part6" data-entity-2="part6" data-source-line="56" id="msg27"><line style="stroke:#0F172A;stroke-width:1;" x1="1076.2993" x2="1118.2993" y1="1025.4141" y2="1025.4141"/><line style="stroke:#0F172A;stroke-width:1;" x1="1118.2993" x2="1118.2993" y1="1025.4141" y2="1038.4141"/><line style="stroke:#0F172A;stroke-width:1;" x1="1077.2993" x2="1118.2993" y1="1038.4141" y2="1038.4141"/><polygon fill="#0F172A" points="1087.2993,1034.4141,1077.2993,1038.4141,1087.2993,1042.4141,1083.2993,1038.4141" style="stroke:#0F172A;stroke-width:1;"/><text fill="#000000" font-family="sans-serif" font-size="13" lengthAdjust="spacing" textLength="188.0938" x="1083.2993" y="1020.3481">Create Ticket + ClaimDetails</text></g><g class="message" data-entity-1="part6" data-entity-2="part8" data-source-line="57" id="msg28"><polygon fill="#0F172A" points="1434.9473,1063.5469,1444.9473,1067.5469,1434.9473,1071.5469,1438.9473,1067.5469" style="stroke:#0F172A;stroke-width:1;"/><line style="stroke:#0F172A;stroke-width:1;" x1="1076.2993" x2="1440.9473" y1="1067.5469" y2="1067.5469"/><text fill="#000000" font-family="sans-serif" font-size="13" lengthAdjust="spacing" textLength="141.7559" x="1083.2993" y="1062.481">Publish TicketCreated</text></g><g class="message" data-entity-1="part6" data-entity-2="part5" data-source-line="58" id="msg29"><polygon fill="#0F172A" points="577.6846,1092.6797,567.6846,1096.6797,577.6846,1100.6797,573.6846,1096.6797" style="stroke:#0F172A;stroke-width:1;"/><line style="stroke:#0F172A;stroke-width:1;stroke-dasharray:2,2;" x1="571.6846" x2="1075.2993" y1="1096.6797" y2="1096.6797"/><text fill="#000000" font-family="sans-serif" font-size="13" lengthAdjust="spacing" textLength="131.479" x="583.6846" y="1091.6138">Claim ticket created</text></g><g class="message" data-entity-1="part5" data-entity-2="part1" data-source-line="59" id="msg30"><polygon fill="#0F172A" points="53.002,1121.8125,43.002,1125.8125,53.002,1129.8125,49.002,1125.8125" style="stroke:#0F172A;stroke-width:1;"/><line style="stroke:#0F172A;stroke-width:1;stroke-dasharray:2,2;" x1="47.002" x2="565.6846" y1="1125.8125" y2="1125.8125"/><text fill="#000000" font-family="sans-serif" font-size="13" lengthAdjust="spacing" textLength="141.0068" x="59.002" y="1120.7466">Claim ticket response</text></g><g class="message" data-entity-1="part2" data-entity-2="part5" data-source-line="61" id="msg31"><polygon fill="#0F172A" points="554.6846,1150.9453,564.6846,1154.9453,554.6846,1158.9453,558.6846,1154.9453" style="stroke:#0F172A;stroke-width:1;"/><line style="stroke:#0F172A;stroke-width:1;" x1="114.436" x2="560.6846" y1="1154.9453" y2="1154.9453"/><text fill="#000000" font-family="sans-serif" font-size="13" lengthAdjust="spacing" textLength="155.8413" x="121.436" y="1149.8794">PUT /tickets/{id}/assign</text></g><g class="message" data-entity-1="part5" data-entity-2="part6" data-source-line="62" id="msg32"><polygon fill="#0F172A" points="1064.2993,1180.0781,1074.2993,1184.0781,1064.2993,1188.0781,1068.2993,1184.0781" style="stroke:#0F172A;stroke-width:1;"/><line style="stroke:#0F172A;stroke-width:1;" x1="566.6846" x2="1070.2993" y1="1184.0781" y2="1184.0781"/><text fill="#000000" font-family="sans-serif" font-size="13" lengthAdjust="spacing" textLength="122.2876" x="573.6846" y="1179.0122">Assign claim ticket</text></g><g class="message" data-entity-1="part6" data-entity-2="part8" data-source-line="63" id="msg33"><polygon fill="#0F172A" points="1434.9473,1209.2109,1444.9473,1213.2109,1434.9473,1217.2109,1438.9473,1213.2109" style="stroke:#0F172A;stroke-width:1;"/><line style="stroke:#0F172A;stroke-width:1;" x1="1076.2993" x2="1440.9473" y1="1213.2109" y2="1213.2109"/><text fill="#000000" font-family="sans-serif" font-size="13" lengthAdjust="spacing" textLength="148.8145" x="1083.2993" y="1208.145">Publish TicketAssigned</text></g><g class="message" data-entity-1="part6" data-entity-2="part5" data-source-line="64" id="msg34"><polygon fill="#0F172A" points="577.6846,1238.3438,567.6846,1242.3438,577.6846,1246.3438,573.6846,1242.3438" style="stroke:#0F172A;stroke-width:1;"/><line style="stroke:#0F172A;stroke-width:1;stroke-dasharray:2,2;" x1="571.6846" x2="1075.2993" y1="1242.3438" y2="1242.3438"/><text fill="#000000" font-family="sans-serif" font-size="13" lengthAdjust="spacing" textLength="58.792" x="583.6846" y="1237.2778">Assigned</text></g><g class="message" data-entity-1="part3" data-entity-2="part5" data-source-line="66" id="msg35"><polygon fill="#0F172A" points="554.6846,1267.4766,564.6846,1271.4766,554.6846,1275.4766,558.6846,1271.4766" style="stroke:#0F172A;stroke-width:1;"/><line style="stroke:#0F172A;stroke-width:1;" x1="212.1836" x2="560.6846" y1="1271.4766" y2="1271.4766"/><text fill="#000000" font-family="sans-serif" font-size="13" lengthAdjust="spacing" textLength="191.731" x="219.1836" y="1266.4106">POST /tickets/{id}/comments</text></g><g class="message" data-entity-1="part5" data-entity-2="part6" data-source-line="67" id="msg36"><polygon fill="#0F172A" points="1064.2993,1296.6094,1074.2993,1300.6094,1064.2993,1304.6094,1068.2993,1300.6094" style="stroke:#0F172A;stroke-width:1;"/><line style="stroke:#0F172A;stroke-width:1;" x1="566.6846" x2="1070.2993" y1="1300.6094" y2="1300.6094"/><text fill="#000000" font-family="sans-serif" font-size="13" lengthAdjust="spacing" textLength="91.292" x="573.6846" y="1295.5435">Add comment</text></g><g class="message" data-entity-1="part6" data-entity-2="part8" data-source-line="68" id="msg37"><polygon fill="#0F172A" points="1434.9473,1325.7422,1444.9473,1329.7422,1434.9473,1333.7422,1438.9473,1329.7422" style="stroke:#0F172A;stroke-width:1;"/><line style="stroke:#0F172A;stroke-width:1;" x1="1076.2993" x2="1440.9473" y1="1329.7422" y2="1329.7422"/><text fill="#000000" font-family="sans-serif" font-size="13" lengthAdjust="spacing" textLength="156.0381" x="1083.2993" y="1324.6763">Publish CommentAdded</text></g><g class="message" data-entity-1="part6" data-entity-2="part5" data-source-line="69" id="msg38"><polygon fill="#0F172A" points="577.6846,1354.875,567.6846,1358.875,577.6846,1362.875,573.6846,1358.875" style="stroke:#0F172A;stroke-width:1;"/><line style="stroke:#0F172A;stroke-width:1;stroke-dasharray:2,2;" x1="571.6846" x2="1075.2993" y1="1358.875" y2="1358.875"/><text fill="#000000" font-family="sans-serif" font-size="13" lengthAdjust="spacing" textLength="106.5073" x="583.6846" y="1353.8091">Comment saved</text></g><g class="message" data-entity-1="part3" data-entity-2="part5" data-source-line="71" id="msg39"><polygon fill="#0F172A" points="554.6846,1384.0078,564.6846,1388.0078,554.6846,1392.0078,558.6846,1388.0078" style="stroke:#0F172A;stroke-width:1;"/><line style="stroke:#0F172A;stroke-width:1;" x1="212.1836" x2="560.6846" y1="1388.0078" y2="1388.0078"/><text fill="#000000" font-family="sans-serif" font-size="13" lengthAdjust="spacing" textLength="176.6553" x="219.1836" y="1382.9419">POST /tickets/{id}/approve</text></g><g class="message" data-entity-1="part5" data-entity-2="part6" data-source-line="72" id="msg40"><polygon fill="#0F172A" points="1064.2993,1413.1406,1074.2993,1417.1406,1064.2993,1421.1406,1068.2993,1417.1406" style="stroke:#0F172A;stroke-width:1;"/><line style="stroke:#0F172A;stroke-width:1;" x1="566.6846" x2="1070.2993" y1="1417.1406" y2="1417.1406"/><text fill="#000000" font-family="sans-serif" font-size="13" lengthAdjust="spacing" textLength="93.52" x="573.6846" y="1412.0747">Approve claim</text></g><g class="message" data-entity-1="part6" data-entity-2="part6" data-source-line="73" id="msg41"><line style="stroke:#0F172A;stroke-width:1;" x1="1076.2993" x2="1118.2993" y1="1446.2734" y2="1446.2734"/><line style="stroke:#0F172A;stroke-width:1;" x1="1118.2993" x2="1118.2993" y1="1446.2734" y2="1459.2734"/><line style="stroke:#0F172A;stroke-width:1;" x1="1077.2993" x2="1118.2993" y1="1459.2734" y2="1459.2734"/><polygon fill="#0F172A" points="1087.2993,1455.2734,1077.2993,1459.2734,1087.2993,1463.2734,1083.2993,1459.2734" style="stroke:#0F172A;stroke-width:1;"/><text fill="#000000" font-family="sans-serif" font-size="13" lengthAdjust="spacing" textLength="216.8931" x="1083.2993" y="1441.2075">Ensure assigned specialist/admin</text></g><g class="message" data-entity-1="part6" data-entity-2="part8" data-source-line="74" id="msg42"><polygon fill="#0F172A" points="1434.9473,1484.4063,1444.9473,1488.4063,1434.9473,1492.4063,1438.9473,1488.4063" style="stroke:#0F172A;stroke-width:1;"/><line style="stroke:#0F172A;stroke-width:1;" x1="1076.2993" x2="1440.9473" y1="1488.4063" y2="1488.4063"/><text fill="#000000" font-family="sans-serif" font-size="13" lengthAdjust="spacing" textLength="150.2681" x="1083.2993" y="1483.3403">Publish ClaimApproved</text></g><g class="message" data-entity-1="part6" data-entity-2="part5" data-source-line="75" id="msg43"><polygon fill="#0F172A" points="577.6846,1513.5391,567.6846,1517.5391,577.6846,1521.5391,573.6846,1517.5391" style="stroke:#0F172A;stroke-width:1;"/><line style="stroke:#0F172A;stroke-width:1;stroke-dasharray:2,2;" x1="571.6846" x2="1075.2993" y1="1517.5391" y2="1517.5391"/><text fill="#000000" font-family="sans-serif" font-size="13" lengthAdjust="spacing" textLength="62.6387" x="583.6846" y="1512.4731">Approved</text></g><path d="M145.8682,1532.5391 L204.311,1532.5391 L204.311,1539.6719 L194.311,1549.6719 L139.8682,1549.6719 L139.8682,1538.5391 A6,6 0 0 1 145.8682,1532.5391" fill="#EEEEEE" style="stroke:#000000;stroke-width:1.5;"/><rect fill="none" height="133.6641" rx="6" ry="6" style="stroke:#000000;stroke-width:1.5;" width="1361.3579" x="139.8682" y="1532.5391"/><text fill="#000000" font-family="sans-serif" font-size="13" font-weight="700" lengthAdjust="spacing" textLength="19.4429" x="154.8682" y="1545.606">alt</text><text fill="#000000" font-family="sans-serif" font-size="11" font-weight="700" lengthAdjust="spacing" textLength="99.6123" x="219.311" y="1544.7495">[Claim rejected]</text><g class="message" data-entity-1="part3" data-entity-2="part5" data-source-line="78" id="msg44"><polygon fill="#0F172A" points="554.6846,1566.8047,564.6846,1570.8047,554.6846,1574.8047,558.6846,1570.8047" style="stroke:#0F172A;stroke-width:1;"/><line style="stroke:#0F172A;stroke-width:1;" x1="212.1836" x2="560.6846" y1="1570.8047" y2="1570.8047"/><text fill="#000000" font-family="sans-serif" font-size="13" lengthAdjust="spacing" textLength="160.3926" x="219.1836" y="1565.7388">POST /tickets/{id}/reject</text></g><g class="message" data-entity-1="part5" data-entity-2="part6" data-source-line="79" id="msg45"><polygon fill="#0F172A" points="1064.2993,1595.9375,1074.2993,1599.9375,1064.2993,1603.9375,1068.2993,1599.9375" style="stroke:#0F172A;stroke-width:1;"/><line style="stroke:#0F172A;stroke-width:1;" x1="566.6846" x2="1070.2993" y1="1599.9375" y2="1599.9375"/><text fill="#000000" font-family="sans-serif" font-size="13" lengthAdjust="spacing" textLength="80.0186" x="573.6846" y="1594.8716">Reject claim</text></g><g class="message" data-entity-1="part6" data-entity-2="part8" data-source-line="80" id="msg46"><polygon fill="#0F172A" points="1434.9473,1625.0703,1444.9473,1629.0703,1434.9473,1633.0703,1438.9473,1629.0703" style="stroke:#0F172A;stroke-width:1;"/><line style="stroke:#0F172A;stroke-width:1;" x1="1076.2993" x2="1440.9473" y1="1629.0703" y2="1629.0703"/><text fill="#000000" font-family="sans-serif" font-size="13" lengthAdjust="spacing" textLength="144.7646" x="1083.2993" y="1624.0044">Publish ClaimRejected</text></g><g class="message" data-entity-1="part6" data-entity-2="part5" data-source-line="81" id="msg47"><polygon fill="#0F172A" points="577.6846,1654.2031,567.6846,1658.2031,577.6846,1662.2031,573.6846,1658.2031" style="stroke:#0F172A;stroke-width:1;"/><line style="stroke:#0F172A;stroke-width:1;stroke-dasharray:2,2;" x1="571.6846" x2="1075.2993" y1="1658.2031" y2="1658.2031"/><text fill="#000000" font-family="sans-serif" font-size="13" lengthAdjust="spacing" textLength="57.1353" x="583.6846" y="1653.1372">Rejected</text></g><g class="message" data-entity-1="part8" data-entity-2="part9" data-source-line="84" id="msg48"><polygon fill="#0F172A" points="1730.4873,1690.3359,1740.4873,1694.3359,1730.4873,1698.3359,1734.4873,1694.3359" style="stroke:#0F172A;stroke-width:1;"/><line style="stroke:#0F172A;stroke-width:1;" x1="1446.9473" x2="1736.4873" y1="1694.3359" y2="1694.3359"/><text fill="#000000" font-family="sans-serif" font-size="13" lengthAdjust="spacing" textLength="271.54" x="1453.9473" y="1689.27">Consume ticket / comment / claim events</text></g><g class="message" data-entity-1="part9" data-entity-2="part9" data-source-line="85" id="msg49"><line style="stroke:#0F172A;stroke-width:1;" x1="1742.4873" x2="1784.4873" y1="1723.4688" y2="1723.4688"/><line style="stroke:#0F172A;stroke-width:1;" x1="1784.4873" x2="1784.4873" y1="1723.4688" y2="1736.4688"/><line style="stroke:#0F172A;stroke-width:1;" x1="1743.4873" x2="1784.4873" y1="1736.4688" y2="1736.4688"/><polygon fill="#0F172A" points="1753.4873,1732.4688,1743.4873,1736.4688,1753.4873,1740.4688,1749.4873,1736.4688" style="stroke:#0F172A;stroke-width:1;"/><text fill="#000000" font-family="sans-serif" font-size="13" lengthAdjust="spacing" textLength="268.3218" x="1749.4873" y="1718.4028">Save notification + send email if enabled</text></g><g class="message" data-entity-1="part8" data-entity-2="part10" data-source-line="87" id="msg50"><polygon fill="#0F172A" points="2012.8091,1761.6016,2022.8091,1765.6016,2012.8091,1769.6016,2016.8091,1765.6016" style="stroke:#0F172A;stroke-width:1;"/><line style="stroke:#0F172A;stroke-width:1;" x1="1446.9473" x2="2018.8091" y1="1765.6016" y2="1765.6016"/><text fill="#000000" font-family="sans-serif" font-size="13" lengthAdjust="spacing" textLength="108.875" x="1453.9473" y="1760.5356">Consume events</text></g><g class="message" data-entity-1="part10" data-entity-2="part10" data-source-line="88" id="msg51"><line style="stroke:#0F172A;stroke-width:1;" x1="2024.8091" x2="2066.8091" y1="1794.7344" y2="1794.7344"/><line style="stroke:#0F172A;stroke-width:1;" x1="2066.8091" x2="2066.8091" y1="1794.7344" y2="1807.7344"/><line style="stroke:#0F172A;stroke-width:1;" x1="2025.8091" x2="2066.8091" y1="1807.7344" y2="1807.7344"/><polygon fill="#0F172A" points="2035.8091,1803.7344,2025.8091,1807.7344,2035.8091,1811.7344,2031.8091,1807.7344" style="stroke:#0F172A;stroke-width:1;"/><text fill="#000000" font-family="sans-serif" font-size="13" lengthAdjust="spacing" textLength="180.2798" x="2031.8091" y="1789.6685">Save EventAudit for reports</text></g><?plantuml-src rLPTJzim57tFhxXYBvi0TR19OqYT53gA9h6DjR2dlRZERUkHs9djj4E8_xuREqcJff32niDuAlQv7-VSsrERQo5Jfba24yQlPrfbCXgeM6buCJmQXiD1O2g4mLyPIevm6m24MgjbWNmzF7Xt6DBXkPZYkP1uedI4khXz_pPySt9KlsrLSd-4k63Q2YvI9cqZHLMW3hWdorszupcBr5B86KnPRB1sumAvqX8r71m60UEMSWmoOrM2klWtZ18XYyyxWvY9nC0uHIvOB8pT0MR0dwuEI_GuIrEbxJgyEAxXWtH52S9Kd36BItRJEBuK_1hj6FL2S6pSNAXOy9loXiQJ8OpOP2BivsyDu1TbnLHmPeMIcn8vgkL5qE-NdHQreTyFId5W_qEjKJY6Yw_ZI-XP1pG_v4jxao9K6Lu5DJ25DiXGz53f9TCHw7oxI93c_OQ0xoHSHFc0PNQEqkQiC09UpgwLe1GaRpMRaEhp8kT0Onww7h7Ehv205-Ww7O9MiXnNcdafY959bQIr2vowRTskLhBrRaLqrsF6Y9di42nq832DOjsoZQaZ7uhHfNg4IcLGbqmLBcXj-SChuxbpbIGqJTF5Fg9HU-XM70OUIs7T30ei6BROaaPhWiOoctLnk4hT_deiM0KZD2gcchr1h4oxptQ6KsaoJT-0GdAOu5JfAYEVCpd3HupODzIfJmdB_S4Ptr-uWulVWzGPsATe3tX-42RaorjRXWkvtpWQRPoTKXT2MjIInJrNLY0DhMo05h1WG8Vbn_pOTxw_yAv3zhdMNCE2QysLjQ0MsSIszFNNWBzfrmpiGfff6gN9vtkpyhSr_xd77gbSRa1Pl8KrU1yiXxdhP_CHBHEn-VTswZV7Rckg3VZpMYglbNfMWrn_DVoV_lWK5YnDjLfW5mcFyWDvl1kQggKUSq-uhOHm_kCBTu-on0KijiMAQlo9FDzbWASeuyFpb_M3qemSh506O6jcerLt7Tmg94hYL-KZs8P7fDiAaZ_1yYlQAzSl_-I4mONRsqtHzoOTqug1h5sHBHbg230XLm8n1PHi4kDQX_LdRAsreeF6RHljQfxcq32BX0NwIQMXvay0ymS0?></g></svg>