<svg xmlns="http://www.w3.org/2000/svg" xmlns:xlink="http://www.w3.org/1999/xlink" contentStyleType="text/css" data-diagram-type="SEQUENCE" height="1021px" preserveAspectRatio="none" style="width:1633px;height:1021px;background:#F8FAFC;" version="1.1" viewBox="0 0 1633 1021" width="1633px" zoomAndPan="magnify"><?plantuml 1.2026.3beta6?><defs/><g><rect fill="#F8FAFC" height="1021" style="stroke:none;stroke-width:1;" width="1633" x="0" y="0"/><g class="participant-lifeline" data-entity-uid="part1" data-qualified-name="Customer" data-source-line="14" id="part1-lifeline"><g><title>Customer</title><rect fill="#000000" fill-opacity="0.00000" height="857.8516" width="8" x="38.002" y="81.2969"/><line style="stroke:#94A3B8;stroke-width:0.5;stroke-dasharray:5,5;" x1="42" x2="42" y1="81.2969" y2="939.1484"/></g></g><g class="participant-lifeline" data-entity-uid="part2" data-qualified-name="ApiGateway" data-source-line="15" id="part2-lifeline"><g><title>ApiGateway</title><rect fill="#000000" fill-opacity="0.00000" height="857.8516" width="8" x="345.8184" y="81.2969"/><line style="stroke:#94A3B8;stroke-width:0.5;stroke-dasharray:5,5;" x1="349.7192" x2="349.7192" y1="81.2969" y2="939.1484"/></g></g><g class="participant-lifeline" data-entity-uid="part3" data-qualified-name="IdentityService" data-source-line="16" id="part3-lifeline"><g><title>IdentityService</title><rect fill="#000000" fill-opacity="0.00000" height="857.8516" width="8" x="512.4248" y="81.2969"/><line style="stroke:#94A3B8;stroke-width:0.5;stroke-dasharray:5,5;" x1="515.7266" x2="515.7266" y1="81.2969" y2="939.1484"/></g></g><g class="participant-lifeline" data-entity-uid="part4" data-qualified-name="PolicyService" data-source-line="17" id="part4-lifeline"><g><title>PolicyService</title><rect fill="#000000" fill-opacity="0.00000" height="857.8516" width="8" x="635.3784" y="81.2969"/><line style="stroke:#94A3B8;stroke-width:0.5;stroke-dasharray:5,5;" x1="639.123" x2="639.123" y1="81.2969" y2="939.1484"/></g></g><g class="participant-lifeline" data-entity-uid="part5" data-qualified-name="RabbitMQ" data-source-line="18" id="part5-lifeline"><g><title>RabbitMQ</title><rect fill="#000000" fill-opacity="0.00000" height="857.8516" width="8" x="852.855" y="81.2969"/><line style="stroke:#94A3B8;stroke-width:0.5;stroke-dasharray:5,5;" x1="856.5762" x2="856.5762" y1="81.2969" y2="939.1484"/></g></g><g class="participant-lifeline" data-entity-uid="part6" data-qualified-name="PaymentService" data-source-line="19" id="part6-lifeline"><g><title>PaymentService</title><rect fill="#000000" fill-opacity="0.00000" height="857.8516" width="8" x="1069.0684" y="81.2969"/><line style="stroke:#94A3B8;stroke-width:0.5;stroke-dasharray:5,5;" x1="1072.2378" x2="1072.2378" y1="81.2969" y2="939.1484"/></g></g><g class="participant-lifeline" data-entity-uid="part7" data-qualified-name="NotificationService" data-source-line="20" id="part7-lifeline"><g><title>NotificationService</title><rect fill="#000000" fill-opacity="0.00000" height="857.8516" width="8" x="1234.3521" y="81.2969"/><line style="stroke:#94A3B8;stroke-width:0.5;stroke-dasharray:5,5;" x1="1238.3169" x2="1238.3169" y1="81.2969" y2="939.1484"/></g></g><g class="participant-lifeline" data-entity-uid="part8" data-qualified-name="AdminService" data-source-line="21" id="part8-lifeline"><g><title>AdminService</title><rect fill="#000000" fill-opacity="0.00000" height="857.8516" width="8" x="1429.2285" y="81.2969"/><line style="stroke:#94A3B8;stroke-width:0.5;stroke-dasharray:5,5;" x1="1432.9258" x2="1432.9258" y1="81.2969" y2="939.1484"/></g></g><g class="participant participant-head" data-entity-uid="part1" data-qualified-name="Customer" data-source-line="14" id="part1-head"><text fill="#000000" font-family="sans-serif" font-size="14" lengthAdjust="spacing" textLength="68.0039" x="5" y="77.9951">Customer</text><ellipse cx="42.002" cy="13.5" fill="#FFFFFF" rx="8" ry="8" style="stroke:#0F172A;stroke-width:0.5;"/><path d="M42.002,21.5 L42.002,48.5 M29.002,29.5 L55.002,29.5 M42.002,48.5 L29.002,63.5 M42.002,48.5 L55.002,63.5" fill="none" style="stroke:#0F172A;stroke-width:0.5;"/></g><g class="participant participant-tail" data-entity-uid="part1" data-qualified-name="Customer" data-source-line="14" id="part1-tail"><text fill="#000000" font-family="sans-serif" font-size="14" lengthAdjust="spacing" textLength="68.0039" x="5" y="951.1436">Customer</text><ellipse cx="42.002" cy="962.9453" fill="#FFFFFF" rx="8" ry="8" style="stroke:#0F172A;stroke-width:0.5;"/><path d="M42.002,970.9453 L42.002,997.9453 M29.002,978.9453 L55.002,978.9453 M42.002,997.9453 L29.002,1012.9453 M42.002,997.9453 L55.002,1012.9453" fill="none" style="stroke:#0F172A;stroke-width:0.5;"/></g><g class="participant participant-head" data-entity-uid="part2" data-qualified-name="ApiGateway" data-source-line="15" id="part2-head"><rect fill="#FFFFFF" height="30.2969" rx="6" ry="6" style="stroke:#0F172A;stroke-width:0.5;" width="98.1982" x="300.7192" y="50"/><text fill="#000000" font-family="sans-serif" font-size="14" lengthAdjust="spacing" textLength="84.1982" x="307.7192" y="69.9951">ApiGateway</text></g><g class="participant participant-tail" data-entity-uid="part2" data-qualified-name="ApiGateway" data-source-line="15" id="part2-tail"><rect fill="#FFFFFF" height="30.2969" rx="6" ry="6" style="stroke:#0F172A;stroke-width:0.5;" width="98.1982" x="300.7192" y="938.1484"/><text fill="#000000" font-family="sans-serif" font-size="14" lengthAdjust="spacing" textLength="84.1982" x="307.7192" y="958.1436">ApiGateway</text></g><g class="participant participant-head" data-entity-uid="part3" data-qualified-name="IdentityService" data-source-line="16" id="part3-head"><rect fill="#FFFFFF" height="30.2969" rx="6" ry="6" style="stroke:#0F172A;stroke-width:0.5;" width="119.3965" x="456.7266" y="50"/><text fill="#000000" font-family="sans-serif" font-size="14" lengthAdjust="spacing" textLength="105.3965" x="463.7266" y="69.9951">IdentityService</text></g><g class="participant participant-tail" data-entity-uid="part3" data-qualified-name="IdentityService" data-source-line="16" id="part3-tail"><rect fill="#FFFFFF" height="30.2969" rx="6" ry="6" style="stroke:#0F172A;stroke-width:0.5;" width="119.3965" x="456.7266" y="938.1484"/><text fill="#000000" font-family="sans-serif" font-size="14" lengthAdjust="spacing" textLength="105.3965" x="463.7266" y="958.1436">IdentityService</text></g><g class="participant participant-head" data-entity-uid="part4" data-qualified-name="PolicyService" data-source-line="17" id="part4-head"><rect fill="#FFFFFF" height="30.2969" rx="6" ry="6" style="stroke:#0F172A;stroke-width:0.5;" width="106.5107" x="586.123" y="50"/><text fill="#000000" font-family="sans-serif" font-size="14" lengthAdjust="spacing" textLength="92.5107" x="593.123" y="69.9951">PolicyService</text></g><g class="participant participant-tail" data-entity-uid="part4" data-qualified-name="PolicyService" data-source-line="17" id="part4-tail"><rect fill="#FFFFFF" height="30.2969" rx="6" ry="6" style="stroke:#0F172A;stroke-width:0.5;" width="106.5107" x="586.123" y="938.1484"/><text fill="#000000" font-family="sans-serif" font-size="14" lengthAdjust="spacing" textLength="92.5107" x="593.123" y="958.1436">PolicyService</text></g><g class="participant participant-head" data-entity-uid="part5" data-qualified-name="RabbitMQ" data-source-line="18" id="part5-head"><path d="M817.5762,55 L896.1338,55 C901.1338,55 901.1338,68.1484 901.1338,68.1484 C901.1338,68.1484 901.1338,81.2969 896.1338,81.2969 L817.5762,81.2969 C812.5762,81.2969 812.5762,68.1484 812.5762,68.1484 C812.5762,68.1484 812.5762,55 817.5762,55" fill="#E2E2F0" style="stroke:#181818;stroke-width:0.5;"/><path d="M896.1338,55 C891.1338,55 891.1338,68.1484 891.1338,68.1484 C891.1338,81.2969 896.1338,81.2969 896.1338,81.2969" fill="none" style="stroke:#181818;stroke-width:0.5;"/><text fill="#000000" font-family="sans-serif" font-size="14" lengthAdjust="spacing" textLength="68.5576" x="817.5762" y="72.9951">RabbitMQ</text></g><g class="participant participant-tail" data-entity-uid="part5" data-qualified-name="RabbitMQ" data-source-line="18" id="part5-tail"><path d="M817.5762,938.1484 L896.1338,938.1484 C901.1338,938.1484 901.1338,951.2969 901.1338,951.2969 C901.1338,951.2969 901.1338,964.4453 896.1338,964.4453 L817.5762,964.4453 C812.5762,964.4453 812.5762,951.2969 812.5762,951.2969 C812.5762,951.2969 812.5762,938.1484 817.5762,938.1484" fill="#E2E2F0" style="stroke:#181818;stroke-width:0.5;"/><path d="M896.1338,938.1484 C891.1338,938.1484 891.1338,951.2969 891.1338,951.2969 C891.1338,964.4453 896.1338,964.4453 896.1338,964.4453" fill="none" style="stroke:#181818;stroke-width:0.5;"/><text fill="#000000" font-family="sans-serif" font-size="14" lengthAdjust="spacing" textLength="68.5576" x="817.5762" y="956.1436">RabbitMQ</text></g><g class="participant participant-head" data-entity-uid="part6" data-qualified-name="PaymentService" data-source-line="19" id="part6-head"><rect fill="#FFFFFF" height="30.2969" rx="6" ry="6" style="stroke:#0F172A;stroke-width:0.5;" width="127.6611" x="1009.2378" y="50"/><text fill="#000000" font-family="sans-serif" font-size="14" lengthAdjust="spacing" textLength="113.6611" x="1016.2378" y="69.9951">PaymentService</text></g><g class="participant participant-tail" data-entity-uid="part6" data-qualified-name="PaymentService" data-source-line="19" id="part6-tail"><rect fill="#FFFFFF" height="30.2969" rx="6" ry="6" style="stroke:#0F172A;stroke-width:0.5;" width="127.6611" x="1009.2378" y="938.1484"/><text fill="#000000" font-family="sans-serif" font-size="14" lengthAdjust="spacing" textLength="113.6611" x="1016.2378" y="958.1436">PaymentService</text></g><g class="participant participant-head" data-entity-uid="part7" data-qualified-name="NotificationService" data-source-line="20" id="part7-head"><rect fill="#FFFFFF" height="30.2969" rx="6" ry="6" style="stroke:#0F172A;stroke-width:0.5;" width="146.0703" x="1165.3169" y="50"/><text fill="#000000" font-family="sans-serif" font-size="14" lengthAdjust="spacing" textLength="132.0703" x="1172.3169" y="69.9951">NotificationService</text></g><g class="participant participant-tail" data-entity-uid="part7" data-qualified-name="NotificationService" data-source-line="20" id="part7-tail"><rect fill="#FFFFFF" height="30.2969" rx="6" ry="6" style="stroke:#0F172A;stroke-width:0.5;" width="146.0703" x="1165.3169" y="938.1484"/><text fill="#000000" font-family="sans-serif" font-size="14" lengthAdjust="spacing" textLength="132.0703" x="1172.3169" y="958.1436">NotificationService</text></g><g class="participant participant-head" data-entity-uid="part8" data-qualified-name="AdminService" data-source-line="21" id="part8-head"><rect fill="#FFFFFF" height="30.2969" rx="6" ry="6" style="stroke:#0F172A;stroke-width:0.5;" width="110.6055" x="1377.9258" y="50"/><text fill="#000000" font-family="sans-serif" font-size="14" lengthAdjust="spacing" textLength="96.6055" x="1384.9258" y="69.9951">AdminService</text></g><g class="participant participant-tail" data-entity-uid="part8" data-qualified-name="AdminService" data-source-line="21" id="part8-tail"><rect fill="#FFFFFF" height="30.2969" rx="6" ry="6" style="stroke:#0F172A;stroke-width:0.5;" width="110.6055" x="1377.9258" y="938.1484"/><text fill="#000000" font-family="sans-serif" font-size="14" lengthAdjust="spacing" textLength="96.6055" x="1384.9258" y="958.1436">AdminService</text></g><g class="message" data-entity-1="part1" data-entity-2="part2" data-source-line="23" id="msg1"><polygon fill="#0F172A" points="337.8184,108.4297,347.8184,112.4297,337.8184,116.4297,341.8184,112.4297" style="stroke:#0F172A;stroke-width:1;"/><line style="stroke:#0F172A;stroke-width:1;" x1="42.002" x2="343.8184" y1="112.4297" y2="112.4297"/><text fill="#000000" font-family="sans-serif" font-size="13" lengthAdjust="spacing" textLength="162.3477" x="49.002" y="107.3638">POST /identity/auth/login</text></g><g class="message" data-entity-1="part2" data-entity-2="part3" data-source-line="24" id="msg2"><polygon fill="#0F172A" points="504.4248,137.5625,514.4248,141.5625,504.4248,145.5625,508.4248,141.5625" style="stroke:#0F172A;stroke-width:1;"/><line style="stroke:#0F172A;stroke-width:1;" x1="349.8184" x2="510.4248" y1="141.5625" y2="141.5625"/><text fill="#000000" font-family="sans-serif" font-size="13" lengthAdjust="spacing" textLength="142.6064" x="356.8184" y="136.4966">Forward login request</text></g><g class="message" data-entity-1="part3" data-entity-2="part2" data-source-line="25" id="msg3"><polygon fill="#0F172A" points="360.8184,166.6953,350.8184,170.6953,360.8184,174.6953,356.8184,170.6953" style="stroke:#0F172A;stroke-width:1;"/><line style="stroke:#0F172A;stroke-width:1;stroke-dasharray:2,2;" x1="354.8184" x2="515.4248" y1="170.6953" y2="170.6953"/><text fill="#000000" font-family="sans-serif" font-size="13" lengthAdjust="spacing" textLength="65.5776" x="366.8184" y="165.6294">JWT token</text></g><g class="message" data-entity-1="part2" data-entity-2="part1" data-source-line="26" id="msg4"><polygon fill="#0F172A" points="53.002,195.8281,43.002,199.8281,53.002,203.8281,49.002,199.8281" style="stroke:#0F172A;stroke-width:1;"/><line style="stroke:#0F172A;stroke-width:1;stroke-dasharray:2,2;" x1="47.002" x2="348.8184" y1="199.8281" y2="199.8281"/><text fill="#000000" font-family="sans-serif" font-size="13" lengthAdjust="spacing" textLength="65.5776" x="59.002" y="194.7622">JWT token</text></g><g class="message" data-entity-1="part1" data-entity-2="part2" data-source-line="28" id="msg5"><polygon fill="#0F172A" points="337.8184,255.2266,347.8184,259.2266,337.8184,263.2266,341.8184,259.2266" style="stroke:#0F172A;stroke-width:1;"/><line style="stroke:#0F172A;stroke-width:1;" x1="42.002" x2="343.8184" y1="259.2266" y2="259.2266"/><text fill="#000000" font-family="sans-serif" font-size="13" lengthAdjust="spacing" textLength="102.7368" x="49.002" y="223.895">POST /purchase</text><text fill="#000000" font-family="sans-serif" font-size="13" lengthAdjust="spacing" textLength="166.3467" x="49.002" y="239.0278">(policyId, vehicleNumber,</text><text fill="#000000" font-family="sans-serif" font-size="13" lengthAdjust="spacing" textLength="283.8164" x="49.002" y="254.1606">drivingLicenseNumber, paymentReference)</text></g><g class="message" data-entity-1="part2" data-entity-2="part4" data-source-line="29" id="msg6"><polygon fill="#0F172A" points="627.3784,284.3594,637.3784,288.3594,627.3784,292.3594,631.3784,288.3594" style="stroke:#0F172A;stroke-width:1;"/><line style="stroke:#0F172A;stroke-width:1;" x1="349.8184" x2="633.3784" y1="288.3594" y2="288.3594"/><text fill="#000000" font-family="sans-serif" font-size="13" lengthAdjust="spacing" textLength="170.8979" x="356.8184" y="283.2935">Forward purchase request</text></g><g class="message" data-entity-1="part4" data-entity-2="part4" data-source-line="30" id="msg7"><line style="stroke:#0F172A;stroke-width:1;" x1="639.3784" x2="681.3784" y1="332.625" y2="332.625"/><line style="stroke:#0F172A;stroke-width:1;" x1="681.3784" x2="681.3784" y1="332.625" y2="345.625"/><line style="stroke:#0F172A;stroke-width:1;" x1="640.3784" x2="681.3784" y1="345.625" y2="345.625"/><polygon fill="#0F172A" points="650.3784,341.625,640.3784,345.625,650.3784,349.625,646.3784,345.625" style="stroke:#0F172A;stroke-width:1;"/><text fill="#000000" font-family="sans-serif" font-size="13" lengthAdjust="spacing" textLength="147.7861" x="646.3784" y="312.4263">Validate customer role</text><text fill="#000000" font-family="sans-serif" font-size="13" lengthAdjust="spacing" textLength="137.8774" x="646.3784" y="327.5591">Validate policy exists</text></g><g class="message" data-entity-1="part4" data-entity-2="part4" data-source-line="31" id="msg8"><line style="stroke:#0F172A;stroke-width:1;" x1="639.3784" x2="681.3784" y1="405.0234" y2="405.0234"/><line style="stroke:#0F172A;stroke-width:1;" x1="681.3784" x2="681.3784" y1="405.0234" y2="418.0234"/><line style="stroke:#0F172A;stroke-width:1;" x1="640.3784" x2="681.3784" y1="418.0234" y2="418.0234"/><polygon fill="#0F172A" points="650.3784,414.0234,640.3784,418.0234,650.3784,422.0234,646.3784,418.0234" style="stroke:#0F172A;stroke-width:1;"/><text fill="#000000" font-family="sans-serif" font-size="13" lengthAdjust="spacing" textLength="148.6177" x="646.3784" y="369.6919">Create CustomerPolicy</text><text fill="#000000" font-family="sans-serif" font-size="13" lengthAdjust="spacing" textLength="113.0137" x="646.3784" y="384.8247">Status = Pending</text><text fill="#000000" font-family="sans-serif" font-size="13" lengthAdjust="spacing" textLength="195.8315" x="646.3784" y="399.9575">PendingOperation = Purchase</text></g><g class="message" data-entity-1="part4" data-entity-2="part5" data-source-line="32" id="msg9"><polygon fill="#0F172A" points="844.855,443.1563,854.855,447.1563,844.855,451.1563,848.855,447.1563" style="stroke:#0F172A;stroke-width:1;"/><line style="stroke:#0F172A;stroke-width:1;" x1="639.3784" x2="850.855" y1="447.1563" y2="447.1563"/><text fill="#000000" font-family="sans-serif" font-size="13" lengthAdjust="spacing" textLength="177.8359" x="646.3784" y="442.0903">Publish PaymentRequested</text></g><g class="message" data-entity-1="part4" data-entity-2="part2" data-source-line="33" id="msg10"><polygon fill="#0F172A" points="360.8184,472.2891,350.8184,476.2891,360.8184,480.2891,356.8184,476.2891" style="stroke:#0F172A;stroke-width:1;"/><line style="stroke:#0F172A;stroke-width:1;stroke-dasharray:2,2;" x1="354.8184" x2="638.3784" y1="476.2891" y2="476.2891"/><text fill="#000000" font-family="sans-serif" font-size="13" lengthAdjust="spacing" textLength="179.9878" x="366.8184" y="471.2231">Pending purchase response</text></g><g class="message" data-entity-1="part2" data-entity-2="part1" data-source-line="34" id="msg11"><polygon fill="#0F172A" points="53.002,501.4219,43.002,505.4219,53.002,509.4219,49.002,505.4219" style="stroke:#0F172A;stroke-width:1;"/><line style="stroke:#0F172A;stroke-width:1;stroke-dasharray:2,2;" x1="47.002" x2="348.8184" y1="505.4219" y2="505.4219"/><text fill="#000000" font-family="sans-serif" font-size="13" lengthAdjust="spacing" textLength="227.2397" x="59.002" y="500.356">customerPolicyId + pending status</text></g><g class="message" data-entity-1="part5" data-entity-2="part6" data-source-line="36" id="msg12"><polygon fill="#0F172A" points="1061.0684,530.5547,1071.0684,534.5547,1061.0684,538.5547,1065.0684,534.5547" style="stroke:#0F172A;stroke-width:1;"/><line style="stroke:#0F172A;stroke-width:1;" x1="856.855" x2="1067.0684" y1="534.5547" y2="534.5547"/><text fill="#000000" font-family="sans-serif" font-size="13" lengthAdjust="spacing" textLength="192.2134" x="863.855" y="529.4888">Consume PaymentRequested</text></g><g class="message" data-entity-1="part6" data-entity-2="part6" data-source-line="37" id="msg13"><line style="stroke:#0F172A;stroke-width:1;" x1="1073.0684" x2="1115.0684" y1="563.6875" y2="563.6875"/><line style="stroke:#0F172A;stroke-width:1;" x1="1115.0684" x2="1115.0684" y1="563.6875" y2="576.6875"/><line style="stroke:#0F172A;stroke-width:1;" x1="1074.0684" x2="1115.0684" y1="576.6875" y2="576.6875"/><polygon fill="#0F172A" points="1084.0684,572.6875,1074.0684,576.6875,1084.0684,580.6875,1080.0684,576.6875" style="stroke:#0F172A;stroke-width:1;"/><text fill="#000000" font-family="sans-serif" font-size="13" lengthAdjust="spacing" textLength="151.2837" x="1080.0684" y="558.6216">Create Payment record</text></g><g class="message" data-entity-1="part6" data-entity-2="part5" data-source-line="38" id="msg14"><polygon fill="#0F172A" points="867.855,601.8203,857.855,605.8203,867.855,609.8203,863.855,605.8203" style="stroke:#0F172A;stroke-width:1;"/><line style="stroke:#0F172A;stroke-width:1;" x1="861.855" x2="1072.0684" y1="605.8203" y2="605.8203"/><text fill="#000000" font-family="sans-serif" font-size="13" lengthAdjust="spacing" textLength="179.0991" x="873.855" y="600.7544">Publish PaymentCompleted</text></g><g class="message" data-entity-1="part5" data-entity-2="part4" data-source-line="40" id="msg15"><polygon fill="#0F172A" points="650.3784,630.9531,640.3784,634.9531,650.3784,638.9531,646.3784,634.9531" style="stroke:#0F172A;stroke-width:1;"/><line style="stroke:#0F172A;stroke-width:1;" x1="644.3784" x2="855.855" y1="634.9531" y2="634.9531"/><text fill="#000000" font-family="sans-serif" font-size="13" lengthAdjust="spacing" textLength="193.4766" x="656.3784" y="629.8872">Consume PaymentCompleted</text></g><g class="message" data-entity-1="part4" data-entity-2="part4" data-source-line="41" id="msg16"><line style="stroke:#0F172A;stroke-width:1;" x1="639.3784" x2="681.3784" y1="694.3516" y2="694.3516"/><line style="stroke:#0F172A;stroke-width:1;" x1="681.3784" x2="681.3784" y1="694.3516" y2="707.3516"/><line style="stroke:#0F172A;stroke-width:1;" x1="640.3784" x2="681.3784" y1="707.3516" y2="707.3516"/><polygon fill="#0F172A" points="650.3784,703.3516,640.3784,707.3516,650.3784,711.3516,646.3784,707.3516" style="stroke:#0F172A;stroke-width:1;"/><text fill="#000000" font-family="sans-serif" font-size="13" lengthAdjust="spacing" textLength="158.6406" x="646.3784" y="659.02">Activate CustomerPolicy</text><text fill="#000000" font-family="sans-serif" font-size="13" lengthAdjust="spacing" textLength="156.73" x="646.3784" y="674.1528">Set StartDate / EndDate</text><text fill="#000000" font-family="sans-serif" font-size="13" lengthAdjust="spacing" textLength="155.2573" x="646.3784" y="689.2856">Clear PendingOperation</text></g><g class="message" data-entity-1="part4" data-entity-2="part5" data-source-line="42" id="msg17"><polygon fill="#0F172A" points="844.855,732.4844,854.855,736.4844,844.855,740.4844,848.855,736.4844" style="stroke:#0F172A;stroke-width:1;"/><line style="stroke:#0F172A;stroke-width:1;" x1="639.3784" x2="850.855" y1="736.4844" y2="736.4844"/><text fill="#000000" font-family="sans-serif" font-size="13" lengthAdjust="spacing" textLength="156.3555" x="646.3784" y="731.4185">Publish PolicyPurchased</text></g><g class="message" data-entity-1="part5" data-entity-2="part7" data-source-line="44" id="msg18"><polygon fill="#0F172A" points="1226.3521,761.6172,1236.3521,765.6172,1226.3521,769.6172,1230.3521,765.6172" style="stroke:#0F172A;stroke-width:1;"/><line style="stroke:#0F172A;stroke-width:1;" x1="856.855" x2="1232.3521" y1="765.6172" y2="765.6172"/><text fill="#000000" font-family="sans-serif" font-size="13" lengthAdjust="spacing" textLength="170.7329" x="863.855" y="760.5513">Consume PolicyPurchased</text></g><g class="message" data-entity-1="part7" data-entity-2="part7" data-source-line="45" id="msg19"><line style="stroke:#0F172A;stroke-width:1;" x1="1238.3521" x2="1280.3521" y1="794.75" y2="794.75"/><line style="stroke:#0F172A;stroke-width:1;" x1="1280.3521" x2="1280.3521" y1="794.75" y2="807.75"/><line style="stroke:#0F172A;stroke-width:1;" x1="1239.3521" x2="1280.3521" y1="807.75" y2="807.75"/><polygon fill="#0F172A" points="1249.3521,803.75,1239.3521,807.75,1249.3521,811.75,1245.3521,807.75" style="stroke:#0F172A;stroke-width:1;"/><text fill="#000000" font-family="sans-serif" font-size="13" lengthAdjust="spacing" textLength="154.2925" x="1245.3521" y="789.6841">Save in-app notification</text></g><g class="message" data-entity-1="part7" data-entity-2="part7" data-source-line="46" id="msg20"><line style="stroke:#0F172A;stroke-width:1;" x1="1238.3521" x2="1280.3521" y1="836.8828" y2="836.8828"/><line style="stroke:#0F172A;stroke-width:1;" x1="1280.3521" x2="1280.3521" y1="836.8828" y2="849.8828"/><line style="stroke:#0F172A;stroke-width:1;" x1="1239.3521" x2="1280.3521" y1="849.8828" y2="849.8828"/><polygon fill="#0F172A" points="1249.3521,845.8828,1239.3521,849.8828,1249.3521,853.8828,1245.3521,849.8828" style="stroke:#0F172A;stroke-width:1;"/><text fill="#000000" font-family="sans-serif" font-size="13" lengthAdjust="spacing" textLength="180.8765" x="1245.3521" y="831.8169">Send email if SMTP enabled</text></g><g class="message" data-entity-1="part5" data-entity-2="part8" data-source-line="48" id="msg21"><polygon fill="#0F172A" points="1421.2285,875.0156,1431.2285,879.0156,1421.2285,883.0156,1425.2285,879.0156" style="stroke:#0F172A;stroke-width:1;"/><line style="stroke:#0F172A;stroke-width:1;" x1="856.855" x2="1427.2285" y1="879.0156" y2="879.0156"/><text fill="#000000" font-family="sans-serif" font-size="13" lengthAdjust="spacing" textLength="170.7329" x="863.855" y="873.9497">Consume PolicyPurchased</text></g><g class="message" data-entity-1="part8" data-entity-2="part8" data-source-line="49" id="msg22"><line style="stroke:#0F172A;stroke-width:1;" x1="1433.2285" x2="1475.2285" y1="908.1484" y2="908.1484"/><line style="stroke:#0F172A;stroke-width:1;" x1="1475.2285" x2="1475.2285" y1="908.1484" y2="921.1484"/><line style="stroke:#0F172A;stroke-width:1;" x1="1434.2285" x2="1475.2285" y1="921.1484" y2="921.1484"/><polygon fill="#0F172A" points="1444.2285,917.1484,1434.2285,921.1484,1444.2285,925.1484,1440.2285,921.1484" style="stroke:#0F172A;stroke-width:1;"/><text fill="#000000" font-family="sans-serif" font-size="13" lengthAdjust="spacing" textLength="180.2798" x="1440.2285" y="903.0825">Save EventAudit for reports</text></g><?plantuml-src bLLDRzD04BtxLup41KIhq894GGB93GqgwaTeAhZail5Ecb7jtMLsdJH2_7VMd_KwJWi-MJllpRmtCrxRUr96iCXW8PBxEzQvacETQeONavD9F1b7jaLO_9MZIX1-Hm0nizxKo3UJe_V7iJ-ye2LUaC9JpHAvZdvu5xyzFUb6TogLZqTC1JjAo0ZbWXHjWIvWRvOuSPg7-LLe3_DFr-jAIBqXTGTBaLhiH4fYebaXmz5n58aY9OnpwtI679b7XH0R-YeSRiGsE3wNg1ovxGnvJGa6iQbEAMaZljyvmerOBCXTVW-1OflvD4CvhhIZ9IN2aLP3yLXcr0QYHZaSVku8XeymlPxTmeXgiIEHkzKerNUaeWxCatfsF7EYUIDOGea6BjR6kgYFE-mN_FRp5fo-nx20HxKIkvZdX9kSavMmE5SlJTdKSta0QrnHak9LdYsG3-PACgtza2-y7cMROp1LRszmYLmi_AkUus187RzDoTPo21nW_X0fIPyOaiOCwzHBRiyhwO0FP9rzFj-OiM0rhQd2SpLpmkKMFi4KbVH-vwf-kJR8vPuKiLhzRfLc0OlUvekKxAfPlvlAACe-QMScLRrkYwpHlkTFp3e9N9nBU0scJcDBGr7KAYjw4NmHHJDy_Zp30QqXSf1RDR8-zshz5pz4tD-QiSvCYaMvK6L_Og78HzQpi_Pt6Qq7fuqE_CJPVIcY8pXJidYRgt6AWg4_-d-RTubfLgJdQU32wJhhKOVGUvFCn1g1rA4m1bG7yPzPl6N0J50Aj8JPvUqKK8b5sZVIlHcVS130TccbvhErdsQSItAmzFy7HgFPsRy0?></g></svg>